# Blender v3.2.2 OBJ File: ''
# www.blender.org
mtllib 11.mtl
o node0_Part__Feature.007_hull_11
v -0.006804 0.045305 -0.009631
v -0.004253 0.046155 -0.001976
v -0.006804 0.046155 -0.001976
v -0.004253 0.045305 -0.001976
v -0.004253 0.045871 -0.009631
v -0.006804 0.045305 -0.001976
v -0.004253 0.045305 -0.009631
v -0.006804 0.045871 -0.009631
v -0.004253 0.046155 -0.004529
v -0.006804 0.046155 -0.003678
vt 1.000000 0.000000
vt 0.666492 1.000000
vt 0.777662 0.000000
vt 1.000000 1.000000
vt 1.000000 1.000000
vt 0.000000 1.000000
vt 0.000000 0.000000
vt 1.000000 0.000000
vt 0.000000 1.000000
vt 0.000000 0.000000
vn 0.0000 1.0000 0.0000
vn 0.0000 0.0000 1.0000
vn 1.0000 0.0000 0.0000
vn -1.0000 0.0000 0.0000
vn 0.0000 -1.0000 0.0000
vn 0.0000 0.0000 -1.0000
vn 0.0000 0.9985 -0.0556
vn -0.0159 0.9987 -0.0476
usemtl Shape.014
s off
f 3/1/1 9/2/1 10/3/1
f 2/4/2 3/1/2 4/5/2
f 2/4/3 4/5/3 5/6/3
f 3/1/4 1/7/4 6/8/4
f 4/5/2 3/1/2 6/8/2
f 1/7/5 4/5/5 6/8/5
f 4/5/5 1/7/5 7/9/5
f 1/7/6 5/6/6 7/9/6
f 5/6/3 4/5/3 7/9/3
f 1/7/4 3/1/4 8/10/4
f 5/6/6 1/7/6 8/10/6
f 5/6/7 8/10/7 9/2/7
f 3/1/1 2/4/1 9/2/1
f 2/4/3 5/6/3 9/2/3
f 8/10/4 3/1/4 10/3/4
f 9/2/8 8/10/8 10/3/8
