# Blender v3.2.2 OBJ File: ''
# www.blender.org
mtllib 15.mtl
o node0_Part__Feature.007_hull_15
v 0.008789 0.048423 -0.001976
v 0.005671 0.053809 -0.001409
v 0.005671 0.053809 -0.001976
v 0.003403 0.048423 0.000292
v 0.008505 0.051258 0.000292
v 0.003403 0.048423 -0.001692
v 0.003403 0.053809 0.000292
v 0.008789 0.048423 0.000292
v 0.003403 0.053809 -0.001976
v 0.008789 0.050692 -0.001976
v 0.007371 0.052959 0.000292
v 0.007371 0.052959 -0.001976
v 0.005387 0.053809 0.000292
v 0.007087 0.048423 -0.001976
v 0.003403 0.052108 -0.001976
v 0.008789 0.050408 0.000292
v 0.008505 0.051258 -0.001976
vt 0.842183 0.736725
vt 0.526365 0.947271
vt 0.526365 0.947271
vt 0.000000 1.000000
vt 0.000000 0.000000
vt 0.000000 0.000000
vt 1.000000 0.000000
vt 1.000000 0.421092
vt 1.000000 0.421092
vt 0.000000 1.000000
vt 1.000000 0.000000
vt 0.421277 1.000000
vt 0.842183 0.736725
vt 1.000000 0.368362
vt 0.000000 0.683996
vt 0.684181 0.000000
vt 0.368548 1.000000
vn 0.8320 0.5547 0.0000
vn 0.0000 -1.0000 0.0000
vn -1.0000 0.0000 0.0000
vn 0.0000 1.0000 0.0000
vn -0.0000 -0.0000 1.0000
vn 0.0000 0.0000 -1.0000
vn 1.0000 -0.0000 0.0000
vn 0.4472 0.8944 0.0000
vn 0.8321 0.5547 0.0000
vn 0.3930 0.9172 0.0656
vn -0.0766 -0.0766 -0.9941
vn 0.9477 0.3166 0.0397
vn 0.8938 0.4485 0.0000
usemtl Shape.018
s off
f 12/1/1 5/2/1 17/3/1
f 1/4/2 4/5/2 6/6/2
f 6/6/3 4/5/3 7/7/3
f 2/8/4 3/9/4 7/7/4
f 4/5/5 5/2/5 7/7/5
f 4/5/2 1/4/2 8/10/2
f 5/2/5 4/5/5 8/10/5
f 3/9/6 1/4/6 9/11/6
f 6/6/3 7/7/3 9/11/3
f 7/7/4 3/9/4 9/11/4
f 1/4/6 3/9/6 10/12/6
f 8/10/7 1/4/7 10/12/7
f 3/9/8 2/8/8 11/13/8
f 7/7/5 5/2/5 11/13/5
f 10/12/6 3/9/6 12/1/6
f 3/9/8 11/13/8 12/1/8
f 11/13/9 5/2/9 12/1/9
f 2/8/4 7/7/4 13/14/4
f 11/13/10 2/8/10 13/14/10
f 7/7/5 11/13/5 13/14/5
f 1/4/2 6/6/2 14/15/2
f 9/11/6 1/4/6 14/15/6
f 9/11/6 14/15/6 15/16/6
f 6/6/3 9/11/3 15/16/3
f 14/15/11 6/6/11 15/16/11
f 5/2/5 8/10/5 16/17/5
f 10/12/12 5/2/12 16/17/12
f 8/10/7 10/12/7 16/17/7
f 5/2/13 10/12/13 17/3/13
f 10/12/6 12/1/6 17/3/6
