# Blender v3.2.2 OBJ File: ''
# www.blender.org
mtllib 18.mtl
o node0_Part__Feature.007_hull_18
v 0.001134 0.052109 -0.001976
v -0.000851 0.049274 -0.009631
v -0.001134 0.051825 -0.004811
v -0.001134 0.049274 -0.001976
v 0.001134 0.049274 -0.001976
v 0.000851 0.052109 -0.009631
v 0.000851 0.049274 -0.009631
v -0.000851 0.052109 -0.009631
v -0.001134 0.052109 -0.001976
v 0.001134 0.049274 -0.005379
v 0.001134 0.052109 -0.004529
v -0.001134 0.049274 -0.004245
vt 0.000000 0.000000
vt 1.000000 0.000000
vt 0.703592 0.000000
vt 1.000000 1.000000
vt 1.000000 0.000000
vt 0.000000 0.000000
vt 0.000000 1.000000
vt 0.629654 0.899824
vt 0.000000 1.000000
vt 1.000000 1.000000
vt 0.555454 0.000000
vt 0.666492 1.000000
vn 0.0000 -1.0000 0.0000
vn 0.0000 -0.0000 1.0000
vn 0.0000 0.0000 -1.0000
vn -0.9983 0.0000 -0.0586
vn 0.0000 1.0000 0.0000
vn -1.0000 -0.0000 0.0000
vn -0.9376 0.3460 -0.0347
vn 1.0000 -0.0000 0.0000
vn 0.9978 0.0000 -0.0664
vn 0.9983 0.0166 -0.0554
vn -0.9986 -0.0116 -0.0525
usemtl Shape.021
s off
f 2/1/1 4/2/1 12/3/1
f 1/4/2 4/2/2 5/5/2
f 4/2/1 2/1/1 5/5/1
f 5/5/1 2/1/1 7/6/1
f 2/1/3 6/7/3 7/6/3
f 2/1/4 3/8/4 8/9/4
f 6/7/3 2/1/3 8/9/3
f 1/4/5 6/7/5 8/9/5
f 3/8/6 4/2/6 9/10/6
f 4/2/2 1/4/2 9/10/2
f 1/4/5 8/9/5 9/10/5
f 8/9/7 3/8/7 9/10/7
f 1/4/8 5/5/8 10/11/8
f 5/5/1 7/6/1 10/11/1
f 7/6/9 6/7/9 10/11/9
f 6/7/5 1/4/5 11/12/5
f 1/4/8 10/11/8 11/12/8
f 10/11/10 6/7/10 11/12/10
f 3/8/11 2/1/11 12/3/11
f 4/2/6 3/8/6 12/3/6
