# Blender v3.2.2 OBJ File: ''
# www.blender.org
mtllib 21.mtl
o node0_Part__Feature.007_hull_21
v -0.000850 0.040768 -0.009631
v 0.002552 0.041619 -0.001976
v -0.002552 0.041619 -0.001976
v 0.001417 0.040768 -0.001976
v 0.002268 0.041619 -0.009631
v -0.002268 0.041619 -0.009347
v -0.001417 0.040768 -0.001976
v 0.000850 0.040768 -0.009631
v 0.002552 0.041335 -0.007078
v -0.002268 0.041335 -0.009347
v -0.002552 0.041335 -0.003678
v 0.002552 0.041335 -0.001976
v 0.001701 0.041052 -0.009631
v -0.001984 0.041619 -0.009631
v -0.002552 0.041335 -0.001976
v 0.001417 0.040768 -0.003394
v 0.002552 0.041619 -0.007078
v 0.002268 0.041335 -0.009631
vt 0.333508 1.000000
vt 0.000000 0.833268
vt 0.000000 0.944357
vt 1.000000 1.000000
vt 1.000000 0.000000
vt 1.000000 0.777625
vt 0.000000 0.944357
vt 0.037100 0.055643
vt 1.000000 0.222375
vt 0.000000 0.333464
vt 0.000000 0.666536
vt 0.037100 0.055643
vt 0.777662 0.000000
vt 1.000000 1.000000
vt 0.000000 0.111285
vt 1.000000 0.000000
vt 0.814762 0.777625
vt 0.333508 1.000000
vn 0.4460 -0.8936 -0.0496
vn 0.0000 0.0000 1.0000
vn 0.0000 1.0000 0.0000
vn 0.0000 -1.0000 0.0000
vn 0.0000 0.0000 -1.0000
vn -0.3759 -0.9262 -0.0278
vn -0.4213 -0.9067 -0.0211
vn -0.9737 0.2248 -0.0375
vn -0.9987 0.0000 -0.0500
vn 1.0000 0.0000 0.0000
vn 0.4469 -0.8946 0.0000
vn -0.3489 -0.4649 -0.8137
vn -0.7071 0.0000 -0.7071
vn -0.4469 -0.8946 0.0000
vn -1.0000 0.0000 0.0000
vn 0.3164 -0.9482 -0.0288
vn 0.3814 -0.9241 -0.0247
vn 0.9939 0.0000 -0.1106
usemtl Shape.024
s off
f 9/1/1 13/2/1 18/3/1
f 2/4/2 3/5/2 4/6/2
f 3/5/3 2/4/3 5/7/3
f 3/5/3 5/7/3 6/8/3
f 4/6/2 3/5/2 7/9/2
f 1/10/4 4/6/4 7/9/4
f 4/6/4 1/10/4 8/11/4
f 1/10/5 5/7/5 8/11/5
f 1/10/6 7/9/6 10/12/6
f 10/12/7 7/9/7 11/13/7
f 3/5/8 6/8/8 11/13/8
f 6/8/9 10/12/9 11/13/9
f 2/4/2 4/6/2 12/14/2
f 9/1/10 2/4/10 12/14/10
f 4/6/11 9/1/11 12/14/11
f 8/11/5 5/7/5 13/2/5
f 5/7/5 1/10/5 14/15/5
f 6/8/3 5/7/3 14/15/3
f 1/10/12 10/12/12 14/15/12
f 10/12/13 6/8/13 14/15/13
f 7/9/2 3/5/2 15/16/2
f 11/13/14 7/9/14 15/16/14
f 3/5/15 11/13/15 15/16/15
f 4/6/4 8/11/4 16/17/4
f 9/1/11 4/6/11 16/17/11
f 8/11/16 13/2/16 16/17/16
f 13/2/17 9/1/17 16/17/17
f 5/7/3 2/4/3 17/18/3
f 9/1/18 5/7/18 17/18/18
f 2/4/10 9/1/10 17/18/10
f 5/7/18 9/1/18 18/3/18
f 13/2/5 5/7/5 18/3/5
