# Blender v3.2.2 OBJ File: ''
# www.blender.org
mtllib 22.mtl
o node0_Part__Feature.007_hull_22
v -0.002268 0.048707 -0.009631
v 0.002268 0.048707 -0.001976
v 0.001417 0.049274 -0.001976
v -0.002552 0.048423 -0.001976
v 0.002268 0.048423 -0.009631
v -0.000850 0.049274 -0.009631
v -0.001134 0.049274 -0.001976
v 0.000850 0.049274 -0.009631
v 0.002268 0.048423 -0.001976
v -0.002268 0.048423 -0.009631
v 0.002268 0.048707 -0.009631
v -0.002552 0.048707 -0.004529
v -0.001985 0.048990 -0.001976
v -0.001134 0.049274 -0.005379
v 0.001417 0.049274 -0.003394
v -0.002552 0.048707 -0.001976
v -0.001701 0.048990 -0.008496
vt 0.555454 0.294191
vt 0.000000 0.353112
vt 0.148269 0.176556
vt 1.000000 1.000000
vt 1.000000 0.823444
vt 1.000000 0.000000
vt 0.000000 1.000000
vt 0.000000 0.058921
vt 1.000000 0.294191
vt 0.000000 0.705809
vt 1.000000 1.000000
vt 0.000000 0.058921
vt 0.000000 1.000000
vt 0.666492 0.000000
vt 1.000000 0.117635
vt 0.814762 0.823444
vt 1.000000 0.000000
vn -0.3439 0.9387 -0.0230
vn -0.0000 0.0000 1.0000
vn 0.0000 0.0000 -1.0000
vn 0.0000 1.0000 -0.0000
vn 0.0000 -1.0000 0.0000
vn 1.0000 0.0000 0.0000
vn 0.5545 0.8322 0.0000
vn -0.9985 0.0000 -0.0556
vn -0.9480 -0.3162 -0.0352
vn -0.3166 0.9486 0.0000
vn 0.3711 0.9280 -0.0337
vn -1.0000 0.0000 0.0000
vn -0.4466 0.8947 0.0000
vn -0.3709 0.9275 -0.0460
vn -0.4096 0.9120 -0.0228
vn -0.3850 0.9227 -0.0168
vn -0.3746 0.9270 -0.0163
usemtl Shape.025
s off
f 14/1/1 6/2/1 17/3/1
f 2/4/2 3/5/2 4/6/2
f 5/7/3 1/8/3 6/2/3
f 4/6/2 3/5/2 7/9/2
f 3/5/4 6/2/4 7/9/4
f 6/2/4 3/5/4 8/10/4
f 5/7/3 6/2/3 8/10/3
f 2/4/2 4/6/2 9/11/2
f 4/6/5 5/7/5 9/11/5
f 5/7/6 2/4/6 9/11/6
f 1/8/3 5/7/3 10/12/3
f 5/7/5 4/6/5 10/12/5
f 3/5/7 2/4/7 11/13/7
f 2/4/6 5/7/6 11/13/6
f 5/7/3 8/10/3 11/13/3
f 1/8/8 10/12/8 12/14/8
f 10/12/9 4/6/9 12/14/9
f 4/6/2 7/9/2 13/15/2
f 7/9/4 6/2/4 14/1/4
f 13/15/10 7/9/10 14/1/10
f 8/10/4 3/5/4 15/16/4
f 3/5/7 11/13/7 15/16/7
f 11/13/11 8/10/11 15/16/11
f 12/14/12 4/6/12 16/17/12
f 4/6/2 13/15/2 16/17/2
f 13/15/13 12/14/13 16/17/13
f 6/2/14 1/8/14 17/3/14
f 1/8/15 12/14/15 17/3/15
f 12/14/16 13/15/16 17/3/16
f 13/15/17 14/1/17 17/3/17
