# Blender v3.2.2 OBJ File: ''
# www.blender.org
mtllib 3.mtl
o node0_Part__Feature.007_hull_3
v 0.006521 0.036515 0.000292
v -0.008505 0.036515 -0.009631
v -0.009073 0.035948 -0.009347
v -0.008789 0.037933 0.000009
v 0.006521 0.037649 -0.009631
v 0.006521 0.035948 -0.009347
v -0.008505 0.035948 -0.001410
v -0.009073 0.037933 -0.009347
v 0.006521 0.037933 0.000292
v 0.006237 0.035948 -0.001126
v -0.005386 0.036232 0.000292
v 0.000849 0.037933 -0.009631
v -0.009073 0.036232 -0.000842
v 0.001985 0.035948 -0.000275
v -0.006805 0.037933 0.000292
v -0.008789 0.036232 0.000009
v 0.006521 0.037933 -0.002827
v 0.006521 0.036515 -0.009631
v -0.009073 0.037933 -0.001126
v -0.008505 0.037933 -0.009631
v 0.006237 0.036232 0.000292
v -0.001700 0.035948 -0.000275
v 0.006521 0.035948 -0.001410
v -0.009073 0.035948 -0.001693
vt 0.018212 0.971480
vt 0.000000 0.885720
vt 0.000000 0.799960
vt 0.000000 0.028620
vt 0.036424 0.000000
vt 1.000000 0.028620
vt 1.000000 0.000000
vt 1.000000 1.000000
vt 0.036424 0.828479
vt 0.000000 0.028620
vt 1.000000 1.000000
vt 0.018212 0.971480
vt 0.981788 0.857100
vt 0.236437 1.000000
vt 0.636270 0.000000
vt 0.709119 0.942860
vt 0.145441 1.000000
vt 1.000000 0.685680
vt 1.000000 0.000000
vt 0.000000 0.857100
vt 0.036424 0.000000
vt 0.981788 1.000000
vt 0.472810 0.942860
vt 1.000000 0.828479
vn -0.6882 -0.6882 0.2297
vn 0.0000 -0.4478 -0.8941
vn 1.0000 -0.0000 0.0000
vn 0.0000 -1.0000 0.0000
vn -0.4472 0.0000 -0.8944
vn 0.0000 1.0000 0.0000
vn 0.0000 -0.0000 1.0000
vn 0.0000 0.0000 -1.0000
vn -1.0000 0.0000 0.0000
vn -0.0827 -0.0690 0.9942
vn -0.9486 -0.0000 0.3166
vn -0.1412 -0.0000 0.9900
vn 0.0500 0.9979 -0.0417
vn -0.9693 0.0405 0.2425
vn 0.0393 -0.9798 0.1962
vn 0.0000 -0.8941 0.4479
vn 0.0000 -0.8941 0.4478
vn -0.0257 -0.9507 0.3091
vn -0.0317 -0.9813 0.1900
vn 0.6870 -0.6894 0.2297
vn 0.1927 -0.9622 0.1927
vn -0.0889 -0.9799 0.1783
usemtl Shape.006
s off
f 16/1/1 13/2/1 24/3/1
f 3/4/2 2/5/2 6/6/2
f 5/7/3 1/8/3 6/6/3
f 3/4/4 6/6/4 7/9/4
f 2/5/5 3/4/5 8/10/5
f 1/8/3 5/7/3 9/11/3
f 8/10/6 4/12/6 9/11/6
f 7/9/4 6/6/4 10/13/4
f 1/8/7 9/11/7 11/14/7
f 5/7/8 2/5/8 12/15/8
f 8/10/6 9/11/6 12/15/6
f 8/10/9 3/4/9 13/2/9
f 7/9/4 10/13/4 14/16/4
f 9/11/6 4/12/6 15/17/6
f 11/14/7 9/11/7 15/17/7
f 11/14/10 15/17/10 16/1/10
f 4/12/11 13/2/11 16/1/11
f 15/17/12 4/12/12 16/1/12
f 9/11/3 5/7/3 17/18/3
f 5/7/13 12/15/13 17/18/13
f 12/15/6 9/11/6 17/18/6
f 2/5/8 5/7/8 18/19/8
f 6/6/2 2/5/2 18/19/2
f 5/7/3 6/6/3 18/19/3
f 4/12/6 8/10/6 19/20/6
f 8/10/9 13/2/9 19/20/9
f 13/2/14 4/12/14 19/20/14
f 2/5/5 8/10/5 20/21/5
f 12/15/8 2/5/8 20/21/8
f 8/10/6 12/15/6 20/21/6
f 1/8/7 11/14/7 21/22/7
f 14/16/15 10/13/15 21/22/15
f 11/14/16 14/16/16 21/22/16
f 7/9/4 14/16/4 22/23/4
f 14/16/17 11/14/17 22/23/17
f 11/14/18 16/1/18 22/23/18
f 16/1/19 7/9/19 22/23/19
f 6/6/3 1/8/3 23/24/3
f 10/13/4 6/6/4 23/24/4
f 1/8/20 21/22/20 23/24/20
f 21/22/21 10/13/21 23/24/21
f 3/4/4 7/9/4 24/3/4
f 13/2/9 3/4/9 24/3/9
f 7/9/22 16/1/22 24/3/22
