# Blender v3.2.2 OBJ File: ''
# www.blender.org
mtllib 4.mtl
o node0_Part__Feature.007_hull_4
v -0.003118 0.044454 -0.011049
v 0.004536 0.043037 0.000292
v 0.004536 0.041619 0.000292
v -0.004536 0.043037 0.000292
v -0.002835 0.041619 -0.009631
v 0.004536 0.045305 -0.009631
v -0.004536 0.045305 -0.001125
v 0.002551 0.041619 -0.009631
v 0.004536 0.045305 -0.001125
v -0.004536 0.041619 0.000292
v -0.004536 0.045305 -0.009631
v 0.001701 0.042186 -0.011049
v 0.003118 0.045305 -0.011049
v 0.004536 0.044170 -0.009631
v -0.004536 0.044170 -0.009631
v -0.001134 0.041903 -0.011049
v 0.004536 0.041619 -0.001693
v -0.004536 0.041619 -0.001693
v -0.003118 0.045305 -0.011049
v 0.003686 0.042753 -0.009631
v -0.002835 0.043320 -0.011049
v 0.002835 0.043603 -0.011049
v -0.003118 0.041903 -0.009631
v 0.001134 0.041903 -0.011049
v 0.003118 0.044170 -0.011049
v 0.002551 0.043037 -0.011049
v -0.001984 0.042469 -0.011049
vt 0.000000 0.187500
vt 0.000000 0.375000
vt 0.000000 0.281305
vt 1.000000 1.000000
vt 1.000000 1.000000
vt 1.000000 0.000000
vt 0.125033 1.000000
vt 0.875055 0.000000
vt 0.125033 0.187500
vt 0.125033 0.781195
vt 0.875055 1.000000
vt 1.000000 0.000000
vt 0.125033 0.000000
vt 0.000000 0.843695
vt 0.000000 0.687500
vt 0.000000 0.156305
vt 0.125033 1.000000
vt 0.125033 0.000000
vt 0.824971 1.000000
vt 0.824971 0.000000
vt 0.000000 0.156305
vt 0.125033 0.906305
vt 0.000000 0.812500
vt 0.125033 0.156305
vt 0.000000 0.625000
vt 0.000000 0.843695
vt 0.000000 0.781195
vn 0.0000 0.0000 -1.0000
vn 0.0000 -0.0000 1.0000
vn 1.0000 0.0000 0.0000
vn 0.0000 0.5299 0.8481
vn 0.0000 -1.0000 0.0000
vn 0.0000 1.0000 0.0000
vn -1.0000 -0.0000 0.0000
vn 0.7071 0.0000 -0.7071
vn -0.7071 0.0000 -0.7071
vn 0.0000 -0.9805 -0.1964
vn 0.6960 -0.6966 -0.1740
vn 0.8461 -0.5075 -0.1631
vn -0.6797 -0.1696 -0.7136
vn -0.7003 -0.6979 -0.1501
vn -0.8358 -0.5228 -0.1680
vn -0.6948 -0.4346 -0.5730
vn -0.5406 -0.5387 -0.6462
vn 0.3786 -0.7586 -0.5303
vn 0.6668 -0.3328 -0.6668
vn 0.5778 -0.5771 -0.5771
vn 0.5770 -0.5775 -0.5775
vn 0.6731 -0.4038 -0.6196
vn 0.6667 -0.3345 -0.6660
vn -0.4262 -0.6400 -0.6394
vn -0.5392 -0.5392 -0.6469
usemtl Shape.007
s off
f 21/1/1 16/2/1 27/3/1
f 3/4/2 2/5/2 4/6/2
f 2/5/3 3/4/3 6/7/3
f 4/6/4 2/5/4 7/8/4
f 3/4/5 5/9/5 8/10/5
f 2/5/3 6/7/3 9/11/3
f 6/7/6 7/8/6 9/11/6
f 7/8/4 2/5/4 9/11/4
f 3/4/2 4/6/2 10/12/2
f 5/9/5 3/4/5 10/12/5
f 4/6/7 7/8/7 10/12/7
f 10/12/7 7/8/7 11/13/7
f 7/8/6 6/7/6 11/13/6
f 11/13/6 6/7/6 13/14/6
f 12/15/1 1/16/1 13/14/1
f 6/7/3 3/4/3 14/17/3
f 13/14/8 6/7/8 14/17/8
f 10/12/7 11/13/7 15/18/7
f 11/13/9 1/16/9 15/18/9
f 8/10/10 5/9/10 16/2/10
f 1/16/1 12/15/1 16/2/1
f 3/4/5 8/10/5 17/19/5
f 14/17/3 3/4/3 17/19/3
f 5/9/5 10/12/5 18/20/5
f 10/12/7 15/18/7 18/20/7
f 1/16/9 11/13/9 19/21/9
f 13/14/1 1/16/1 19/21/1
f 11/13/6 13/14/6 19/21/6
f 17/19/11 8/10/11 20/22/11
f 14/17/12 17/19/12 20/22/12
f 15/18/13 1/16/13 21/1/13
f 1/16/1 16/2/1 21/1/1
f 12/15/1 13/14/1 22/23/1
f 5/9/14 18/20/14 23/24/14
f 18/20/15 15/18/15 23/24/15
f 15/18/16 21/1/16 23/24/16
f 21/1/17 5/9/17 23/24/17
f 12/15/18 8/10/18 24/25/18
f 8/10/10 16/2/10 24/25/10
f 16/2/1 12/15/1 24/25/1
f 13/14/8 14/17/8 25/26/8
f 22/23/1 13/14/1 25/26/1
f 14/17/19 22/23/19 25/26/19
f 8/10/20 12/15/20 26/27/20
f 20/22/21 8/10/21 26/27/21
f 14/17/22 20/22/22 26/27/22
f 12/15/1 22/23/1 26/27/1
f 22/23/23 14/17/23 26/27/23
f 16/2/24 5/9/24 27/3/24
f 5/9/25 21/1/25 27/3/25
