# Blender v3.2.2 OBJ File: ''
# www.blender.org
mtllib 5.mtl
o node0_Part__Feature.007_hull_5
v 0.007371 0.041619 -0.009631
v 0.009073 0.044454 -0.000842
v 0.009073 0.043320 -0.000842
v 0.004536 0.043037 0.000292
v 0.004536 0.045305 -0.009631
v 0.009073 0.045305 -0.009347
v 0.004536 0.045305 -0.001126
v 0.004536 0.041619 0.000292
v 0.008789 0.041619 0.000292
v 0.009073 0.041619 -0.009347
v 0.009073 0.045305 -0.001126
v 0.004536 0.044170 -0.009631
v 0.004536 0.041619 -0.001693
v 0.008789 0.043037 0.000292
v 0.008789 0.045305 -0.009631
v 0.009073 0.041619 -0.001410
v 0.008505 0.041619 -0.009631
vt 0.000000 0.937404
vt 0.028620 1.000000
vt 0.000000 0.874807
vt 0.885720 1.000000
vt 0.885720 1.000000
vt 0.028620 1.000000
vt 0.000000 0.000000
vt 1.000000 0.000000
vt 0.857100 0.000000
vt 1.000000 0.000000
vt 1.000000 0.937404
vt 0.000000 0.624862
vt 0.857100 1.000000
vt 0.000000 0.000000
vt 0.799960 0.000000
vt 1.000000 0.937404
vt 0.828479 1.000000
vn 0.4469 -0.0344 -0.8939
vn 1.0000 0.0000 0.0000
vn -1.0000 0.0000 0.0000
vn 0.0000 1.0000 0.0000
vn 0.9700 -0.0000 0.2429
vn 0.0000 -1.0000 -0.0000
vn 0.0000 -0.0000 1.0000
vn 0.0000 0.5301 0.8479
vn -0.0000 0.0000 -1.0000
vn -0.6506 -0.7230 -0.2324
vn 0.9109 0.1306 0.3913
vn 0.7071 0.0000 -0.7071
vn 0.9849 -0.0549 0.1643
usemtl Shape.008
s off
f 15/1/1 10/2/1 17/3/1
f 2/4/2 3/5/2 6/6/2
f 5/7/3 4/8/3 7/9/3
f 6/6/4 5/7/4 7/9/4
f 4/8/3 5/7/3 8/10/3
f 3/5/5 2/4/5 9/11/5
f 8/10/6 1/12/6 9/11/6
f 4/8/7 8/10/7 9/11/7
f 6/6/2 3/5/2 10/2/2
f 9/11/6 1/12/6 10/2/6
f 2/4/2 6/6/2 11/13/2
f 7/9/8 4/8/8 11/13/8
f 6/6/4 7/9/4 11/13/4
f 5/7/9 1/12/9 12/14/9
f 8/10/3 5/7/3 12/14/3
f 8/10/3 12/14/3 13/15/3
f 1/12/6 8/10/6 13/15/6
f 12/14/10 1/12/10 13/15/10
f 9/11/5 2/4/5 14/16/5
f 4/8/7 9/11/7 14/16/7
f 2/4/11 11/13/11 14/16/11
f 11/13/8 4/8/8 14/16/8
f 1/12/9 5/7/9 15/1/9
f 5/7/4 6/6/4 15/1/4
f 6/6/12 10/2/12 15/1/12
f 3/5/13 9/11/13 16/17/13
f 10/2/2 3/5/2 16/17/2
f 9/11/6 10/2/6 16/17/6
f 10/2/6 1/12/6 17/3/6
f 1/12/9 15/1/9 17/3/9
