# Blender v3.2.2 OBJ File: ''
# www.blender.org
mtllib 9.mtl
o node0_Part__Feature.007_hull_9
v -0.007371 0.052959 -0.005379
v -0.008789 0.048423 -0.009631
v -0.007088 0.048423 -0.009631
v -0.007088 0.048423 -0.001976
v -0.004253 0.054093 -0.009631
v -0.004253 0.052109 -0.001976
v -0.008789 0.050692 -0.001976
v -0.008222 0.052109 -0.009631
v -0.005955 0.053810 -0.001976
v -0.004253 0.052392 -0.009631
v -0.009073 0.048423 -0.002827
v -0.009073 0.050409 -0.009347
v -0.004253 0.053810 -0.001976
v -0.005388 0.054093 -0.009631
v -0.007938 0.052392 -0.001976
v -0.004253 0.052109 -0.007362
v -0.009073 0.048423 -0.009347
v -0.007371 0.052959 -0.009631
v -0.008789 0.048423 -0.001976
v -0.008222 0.052109 -0.004245
v -0.009073 0.050125 -0.003961
v -0.004537 0.054093 -0.007362
v -0.006521 0.053526 -0.001976
v -0.006521 0.053526 -0.006512
v -0.008789 0.050692 -0.009631
vt 0.037100 0.350265
vt 0.000000 0.650088
vt 0.000000 0.400176
vt 0.000000 0.000000
vt 0.000000 0.000000
vt 1.000000 0.000000
vt 0.000000 1.000000
vt 1.000000 0.650088
vt 1.000000 0.400176
vt 1.000000 0.950088
vt 0.000000 0.700000
vt 0.888831 0.000000
vt 1.000000 0.950088
vt 0.000000 1.000000
vt 1.000000 0.700000
vt 0.296408 0.650088
vt 0.037100 0.000000
vt 0.000000 0.800000
vt 0.555454 0.800000
vt 1.000000 0.000000
vt 0.703592 0.650088
vt 0.740692 0.300176
vt 0.296408 1.000000
vt 1.000000 0.900000
vt 0.407446 0.900000
vn -0.8107 0.3244 -0.4874
vn 0.0000 -1.0000 0.0000
vn 0.0000 0.0000 -1.0000
vn 0.7927 -0.6097 0.0000
vn -0.0000 -0.0000 1.0000
vn 1.0000 0.0000 0.0000
vn 0.8116 -0.5797 -0.0723
vn -1.0000 0.0000 0.0000
vn -0.7071 0.0000 -0.7071
vn -0.7071 0.7071 0.0000
vn -0.7067 0.7075 0.0001
vn -0.9486 -0.0000 0.3166
vn -0.9168 0.3989 0.0200
vn -0.8942 0.4476 0.0000
vn -0.7059 0.7084 0.0000
vn -0.8928 0.4469 0.0560
vn -0.9897 0.0793 0.1190
vn -0.9209 0.3894 0.0205
vn 0.2831 0.9584 0.0354
vn 0.0000 0.9986 0.0525
vn 0.0000 1.0000 -0.0000
vn -0.0820 0.9962 0.0308
vn -0.6246 0.7805 0.0260
vn -0.5549 0.8319 0.0000
vn -0.4478 0.8941 -0.0001
vn -0.4963 0.8679 -0.0225
vn -0.4485 0.8938 0.0000
usemtl Shape.012
s off
f 12/1/1 8/2/1 25/3/1
f 2/4/2 3/5/2 4/6/2
f 3/5/3 2/4/3 5/7/3
f 4/6/4 3/5/4 6/8/4
f 4/6/5 6/8/5 7/9/5
f 5/7/3 2/4/3 8/2/3
f 7/9/5 6/8/5 9/10/5
f 3/5/3 5/7/3 10/11/3
f 5/7/6 6/8/6 10/11/6
f 2/4/2 4/6/2 11/12/2
f 6/8/6 5/7/6 13/13/6
f 9/10/5 6/8/5 13/13/5
f 5/7/3 8/2/3 14/14/3
f 7/9/5 9/10/5 15/15/5
f 6/8/4 3/5/4 16/16/4
f 3/5/7 10/11/7 16/16/7
f 10/11/6 6/8/6 16/16/6
f 2/4/2 11/12/2 17/17/2
f 11/12/8 12/1/8 17/17/8
f 12/1/9 2/4/9 17/17/9
f 14/14/3 8/2/3 18/18/3
f 15/15/10 1/19/10 18/18/10
f 8/2/11 15/15/11 18/18/11
f 4/6/5 7/9/5 19/20/5
f 11/12/2 4/6/2 19/20/2
f 7/9/12 11/12/12 19/20/12
f 12/1/13 7/9/13 20/21/13
f 8/2/14 12/1/14 20/21/14
f 15/15/15 8/2/15 20/21/15
f 7/9/16 15/15/16 20/21/16
f 11/12/17 7/9/17 21/22/17
f 7/9/18 12/1/18 21/22/18
f 12/1/8 11/12/8 21/22/8
f 13/13/19 5/7/19 22/23/19
f 9/10/20 13/13/20 22/23/20
f 5/7/21 14/14/21 22/23/21
f 14/14/22 9/10/22 22/23/22
f 1/19/23 15/15/23 23/24/23
f 15/15/5 9/10/5 23/24/5
f 18/18/24 1/19/24 23/24/24
f 18/18/24 23/24/24 24/25/24
f 9/10/25 14/14/25 24/25/25
f 14/14/26 18/18/26 24/25/26
f 23/24/27 9/10/27 24/25/27
f 8/2/3 2/4/3 25/3/3
f 2/4/9 12/1/9 25/3/9
