# Blender v3.2.2 OBJ File: ''
# www.blender.org
mtllib 2.mtl
o node1_Part__Feature001.006_hull_2
v -0.010747 0.005802 -0.025606
v 0.010445 0.022559 -0.015256
v 0.010445 0.018122 -0.011312
v -0.010747 0.018122 -0.011312
v 0.010445 0.004815 -0.011312
v 0.010445 0.019600 -0.025606
v -0.010253 0.022559 -0.023631
v 0.010445 0.005802 -0.025606
v -0.010747 0.004815 -0.011312
v -0.010253 0.022559 -0.015256
v -0.010747 0.019600 -0.025606
v -0.010747 0.004815 -0.024619
v 0.010445 0.022559 -0.023631
v 0.010940 0.004815 -0.017720
v 0.010445 0.004815 -0.024619
v 0.010940 0.019600 -0.021169
v 0.010940 0.018122 -0.013777
v -0.003351 0.021573 -0.024619
v -0.010747 0.022066 -0.015749
v 0.010940 0.004815 -0.013777
v -0.010747 0.020586 -0.025112
v 0.010445 0.022066 -0.024127
v 0.010940 0.020095 -0.017228
v 0.010445 0.020586 -0.025112
v -0.010253 0.021573 -0.024619
v -0.010747 0.021573 -0.023140
vt 0.000000 0.888807
vt 0.000000 0.972216
vt 0.000000 0.944432
vt 0.977175 0.749944
vt 0.977175 1.000000
vt 0.000000 0.749944
vt 0.977175 0.000000
vt 0.000000 0.055624
vt 0.977175 0.833239
vt 0.977175 0.055624
vt 0.000000 0.000000
vt 0.022779 1.000000
vt 0.022779 1.000000
vt 0.000000 0.833239
vt 0.000000 0.000000
vt 0.977175 1.000000
vt 1.000000 0.000000
vt 0.977175 0.000000
vt 1.000000 0.833239
vt 1.000000 0.749944
vt 0.341034 0.944432
vt 1.000000 0.000000
vt 0.977175 0.972216
vt 1.000000 0.861136
vt 0.977175 0.888807
vt 0.022779 0.944432
vn -1.0000 0.0000 0.0000
vn 0.0000 0.6644 0.7474
vn 0.0000 -0.0000 1.0000
vn 0.0000 0.0000 -1.0000
vn 0.0000 1.0000 0.0000
vn 0.0000 -0.7071 -0.7071
vn 0.0000 -1.0000 -0.0000
vn 0.9949 -0.0714 -0.0714
vn 0.9938 0.0000 -0.1109
vn 0.9978 -0.0151 -0.0645
vn 1.0000 0.0000 0.0000
vn 0.9657 0.1724 0.1939
vn 0.9804 0.0000 0.1969
vn 0.0000 0.4474 -0.8943
vn -0.8155 0.4326 0.3845
vn -0.7064 0.7078 0.0000
vn 0.0000 0.7092 -0.7050
vn 0.9918 0.0908 -0.0903
vn 0.9804 0.1970 0.0000
vn 0.9885 0.1497 -0.0188
vn 0.9876 0.1361 0.0778
vn 0.9923 0.0555 -0.1107
vn 0.0001 0.4479 -0.8941
vn 0.9917 0.0710 -0.1067
vn 0.0099 0.5540 -0.8324
vn -0.5785 0.5773 -0.5762
vn -0.0027 0.4479 -0.8941
vn -0.0001 0.7078 -0.7064
vn 0.0000 0.7064 -0.7078
vn -0.8994 0.4361 -0.0291
vn -0.9124 0.3659 -0.1832
usemtl Shape.001
s off
f 21/1/1 19/2/1 26/3/1
f 3/4/2 2/5/2 4/6/2
f 3/4/3 4/6/3 5/7/3
f 1/8/4 6/9/4 8/10/4
f 4/6/1 1/8/1 9/11/1
f 5/7/3 4/6/3 9/11/3
f 4/6/2 2/5/2 10/12/2
f 2/5/5 7/13/5 10/12/5
f 1/8/1 4/6/1 11/14/1
f 6/9/4 1/8/4 11/14/4
f 1/8/6 8/10/6 12/15/6
f 9/11/1 1/8/1 12/15/1
f 5/7/7 9/11/7 12/15/7
f 7/13/5 2/5/5 13/16/5
f 5/7/7 12/15/7 14/17/7
f 12/15/6 8/10/6 15/18/6
f 8/10/8 14/17/8 15/18/8
f 14/17/7 12/15/7 15/18/7
f 8/10/9 6/9/9 16/19/9
f 14/17/10 8/10/10 16/19/10
f 14/17/11 16/19/11 17/20/11
f 2/5/12 3/4/12 17/20/12
f 3/4/13 5/7/13 17/20/13
f 6/9/14 11/14/14 18/21/14
f 4/6/15 10/12/15 19/2/15
f 10/12/16 7/13/16 19/2/16
f 11/14/1 4/6/1 19/2/1
f 5/7/7 14/17/7 20/22/7
f 14/17/11 17/20/11 20/22/11
f 17/20/13 5/7/13 20/22/13
f 11/14/1 19/2/1 21/1/1
f 7/13/17 13/16/17 22/23/17
f 13/16/18 16/19/18 22/23/18
f 13/16/19 2/5/19 23/24/19
f 16/19/20 13/16/20 23/24/20
f 17/20/11 16/19/11 23/24/11
f 2/5/21 17/20/21 23/24/21
f 16/19/22 6/9/22 24/25/22
f 6/9/23 18/21/23 24/25/23
f 22/23/24 16/19/24 24/25/24
f 18/21/25 22/23/25 24/25/25
f 18/21/14 11/14/14 25/26/14
f 21/1/26 7/13/26 25/26/26
f 11/14/27 21/1/27 25/26/27
f 7/13/28 22/23/28 25/26/28
f 22/23/29 18/21/29 25/26/29
f 19/2/30 7/13/30 26/3/30
f 7/13/31 21/1/31 26/3/31
