# Blender v3.2.2 OBJ File: ''
# www.blender.org
mtllib 3.mtl
o node1_Part__Feature001.006_hull_3
v 0.009950 0.031429 -0.017224
v -0.010255 0.022559 -0.023634
v -0.010255 0.022559 -0.014764
v -0.009268 0.036852 -0.014764
v 0.009460 0.034879 -0.007862
v 0.010447 0.022559 -0.015257
v 0.010447 0.023055 -0.023634
v -0.009268 0.035866 -0.007862
v 0.008968 0.036358 -0.015748
v 0.009460 0.036852 -0.009341
v -0.009268 0.035373 -0.016731
v -0.009268 0.033894 -0.008356
v 0.009950 0.022559 -0.014764
v -0.010255 0.025026 -0.022648
v 0.008968 0.035373 -0.016731
v -0.009268 0.036852 -0.009341
v 0.010447 0.022559 -0.023634
v -0.010255 0.027490 -0.012793
v 0.009460 0.036852 -0.014272
v 0.009460 0.036358 -0.007862
v 0.009460 0.032908 -0.008848
v 0.010447 0.025518 -0.014272
v -0.009758 0.033402 -0.017224
v 0.010447 0.024040 -0.023140
v -0.009758 0.032908 -0.009341
v -0.004830 0.032908 -0.008848
v -0.010255 0.023055 -0.023634
v -0.010255 0.027490 -0.020674
v -0.009268 0.034879 -0.007862
v 0.009460 0.035866 -0.016239
v -0.009268 0.036358 -0.015748
v 0.000587 0.025026 -0.022648
vt 0.928558 0.437674
vt 1.000000 0.031321
vt 0.523718 0.062516
vt 0.000000 0.562389
vt 0.000000 0.000000
vt 1.000000 0.531131
vt 0.975993 0.562389
vt 0.000000 0.062516
vt 0.047677 0.437674
vt 0.928558 0.500000
vt 0.952323 0.906226
vt 0.047677 0.562389
vt 0.047677 0.906226
vt 1.000000 0.000000
vt 1.000000 0.000000
vt 0.000000 0.687357
vt 0.952323 0.593584
vt 0.975993 0.406416
vt 0.047677 1.000000
vt 0.952323 1.000000
vt 0.952323 1.000000
vt 0.952323 0.937484
vt 1.000000 0.593584
vt 0.024007 0.406416
vt 0.024007 0.906226
vt 0.047677 0.968679
vt 0.262052 0.937484
vt 0.000000 0.000000
vt 0.000000 0.187674
vt 0.047677 1.000000
vt 0.952323 0.468869
vt 0.047677 0.500000
vn 0.0059 0.4928 -0.8701
vn -0.0000 -1.0000 -0.0000
vn -1.0000 0.0000 0.0000
vn 0.0000 0.4964 -0.8681
vn 0.0000 0.7064 -0.7078
vn 0.0000 1.0000 0.0000
vn 1.0000 0.0000 0.0000
vn 0.0000 0.0000 -1.0000
vn 0.0084 0.9474 -0.3199
vn 0.9959 0.0900 0.0000
vn 0.0000 0.0000 1.0000
vn -0.0219 0.8319 0.5546
vn 0.0000 0.9485 0.3168
vn 0.7448 -0.2985 0.5968
vn 0.0000 -0.4963 0.8682
vn 0.6599 -0.3491 0.6653
vn 0.9536 -0.0951 0.2857
vn 0.9963 0.0854 0.0032
vn 0.9884 0.0000 0.1522
vn 0.9968 0.0758 0.0253
vn -0.8569 0.3151 -0.4081
vn -0.9901 0.1406 0.0000
vn 0.9969 0.0774 -0.0129
vn -0.9890 0.1229 0.0819
vn -0.9233 -0.1426 0.3567
vn -0.9923 0.1233 0.0077
vn -0.9961 0.0879 0.0055
vn -0.0126 -0.4913 0.8709
vn 0.0000 -0.4474 0.8943
vn 0.0000 0.4474 -0.8943
vn -0.8962 0.2774 -0.3463
vn -0.9965 0.0838 0.0000
vn -0.5479 -0.3750 0.7478
vn -0.7146 -0.2975 0.6332
vn -0.9493 0.0000 0.3145
vn -0.0005 -0.4483 0.8939
vn 0.9905 0.1231 -0.0617
vn 0.4079 0.8162 -0.4091
vn 0.3102 0.4983 -0.8096
vn 0.9893 0.1256 -0.0738
vn 0.0000 0.8937 -0.4487
vn -0.9707 0.2147 -0.1078
vn -0.9051 0.3003 -0.3009
vn 0.0002 0.4483 -0.8939
usemtl Shape.002
s off
f 15/1/1 24/2/1 32/3/1
f 3/4/2 2/5/2 6/6/2
f 3/4/2 6/6/2 13/7/2
f 2/5/3 3/4/3 14/8/3
f 14/8/4 11/9/4 15/1/4
f 11/9/5 9/10/5 15/1/5
f 10/11/6 4/12/6 16/13/6
f 6/6/2 2/5/2 17/14/2
f 7/15/7 6/6/7 17/14/7
f 2/5/8 7/15/8 17/14/8
f 14/8/3 3/4/3 18/16/3
f 9/10/9 4/12/9 19/17/9
f 10/11/10 1/18/10 19/17/10
f 4/12/6 10/11/6 19/17/6
f 8/19/11 5/20/11 20/21/11
f 16/13/12 8/19/12 20/21/12
f 10/11/13 16/13/13 20/21/13
f 6/6/14 5/20/14 21/22/14
f 3/4/15 13/7/15 21/22/15
f 13/7/16 6/6/16 21/22/16
f 5/20/17 6/6/17 22/23/17
f 6/6/7 7/15/7 22/23/7
f 1/18/18 10/11/18 22/23/18
f 20/21/19 5/20/19 22/23/19
f 10/11/20 20/21/20 22/23/20
f 11/9/21 14/8/21 23/24/21
f 16/13/22 4/12/22 23/24/22
f 1/18/23 22/23/23 24/2/23
f 22/23/7 7/15/7 24/2/7
f 8/19/24 16/13/24 25/25/24
f 18/16/25 3/4/25 25/25/25
f 16/13/26 23/24/26 25/25/26
f 23/24/27 18/16/27 25/25/27
f 12/26/28 3/4/28 26/27/28
f 21/22/29 5/20/29 26/27/29
f 3/4/15 21/22/15 26/27/15
f 7/15/8 2/5/8 27/28/8
f 2/5/3 14/8/3 27/28/3
f 14/8/30 7/15/30 27/28/30
f 14/8/3 18/16/3 28/29/3
f 23/24/31 14/8/31 28/29/31
f 18/16/32 23/24/32 28/29/32
f 5/20/11 8/19/11 29/30/11
f 3/4/33 12/26/33 29/30/33
f 25/25/34 3/4/34 29/30/34
f 8/19/35 25/25/35 29/30/35
f 12/26/36 26/27/36 29/30/36
f 26/27/29 5/20/29 29/30/29
f 15/1/5 9/10/5 30/31/5
f 19/17/37 1/18/37 30/31/37
f 9/10/38 19/17/38 30/31/38
f 24/2/39 15/1/39 30/31/39
f 1/18/40 24/2/40 30/31/40
f 4/12/41 9/10/41 31/32/41
f 9/10/5 11/9/5 31/32/5
f 23/24/42 4/12/42 31/32/42
f 11/9/43 23/24/43 31/32/43
f 7/15/30 14/8/30 32/3/30
f 14/8/4 15/1/4 32/3/4
f 24/2/44 7/15/44 32/3/44
