# Blender v3.2.2 OBJ File: ''
# www.blender.org
mtllib 4.mtl
o node1_Part__Feature001.006_hull_4
v -0.009269 0.036853 -0.009341
v 0.006009 0.054104 -0.009341
v 0.006993 0.053611 -0.009341
v 0.006993 0.053611 -0.014762
v 0.009461 0.036853 -0.009341
v -0.009269 0.036853 -0.014762
v -0.008281 0.052624 -0.014269
v 0.008968 0.036853 -0.014762
v -0.009269 0.050651 -0.009341
v 0.009461 0.050158 -0.014269
v -0.005817 0.054104 -0.014762
v -0.005817 0.054104 -0.009341
v 0.008968 0.051144 -0.009341
v -0.009269 0.050158 -0.014762
v 0.009461 0.036853 -0.014269
v 0.005516 0.054104 -0.014762
v 0.008968 0.051144 -0.014762
v -0.007789 0.053117 -0.009834
v 0.009461 0.041289 -0.009341
v 0.008473 0.052130 -0.009341
v 0.008473 0.052130 -0.014269
v 0.009461 0.049668 -0.013283
v -0.009269 0.050651 -0.014269
v -0.006801 0.053611 -0.014762
v -0.008776 0.051637 -0.009341
vt 0.000000 0.799838
vt 0.000000 0.799838
vt 0.026321 0.856994
vt 0.868233 0.971422
vt 0.815697 1.000000
vt 0.000000 0.000000
vt 0.868233 0.971422
vt 1.000000 0.000000
vt 0.000000 0.000000
vt 0.973679 0.000000
vt 0.184303 1.000000
vt 0.184303 1.000000
vt 0.973679 0.828416
vt 0.000000 0.771260
vt 1.000000 0.000000
vt 1.000000 0.771260
vt 0.789375 1.000000
vt 0.973679 0.828416
vt 0.079018 0.942786
vt 1.000000 0.257145
vt 0.947250 0.885572
vt 0.947250 0.885572
vt 1.000000 0.742855
vt 0.052750 0.914208
vt 0.131767 0.971422
vn -0.8944 0.4472 0.0000
vn 0.0000 -0.0000 1.0000
vn 0.4479 0.8941 0.0000
vn 0.0000 -1.0000 -0.0000
vn 0.0000 0.0000 -1.0000
vn -1.0000 0.0000 0.0000
vn 0.0000 1.0000 0.0000
vn 1.0000 0.0000 0.0000
vn 0.7071 0.0000 -0.7071
vn 0.3165 0.9482 -0.0288
vn 0.8944 0.4472 0.0000
vn -0.4476 0.8942 0.0000
vn 0.7073 0.7069 0.0000
vn 0.8937 0.4487 0.0000
vn 0.7076 0.5665 -0.4225
vn 0.9874 0.1417 0.0704
vn 0.9932 0.0497 0.1056
vn -0.8161 0.4087 -0.4087
vn -0.5013 0.3583 -0.7876
vn -0.5614 0.8270 -0.0296
vn -0.4479 0.8941 -0.0002
vn -0.8271 0.5613 0.0294
vn -0.4475 0.5367 0.7154
vn -0.8942 0.4478 -0.0001
usemtl Shape.003
s off
f 23/1/1 9/2/1 25/3/1
f 3/4/2 2/5/2 1/6/2
f 2/5/3 3/4/3 4/7/3
f 3/4/2 1/6/2 5/8/2
f 5/8/4 1/6/4 6/9/4
f 6/9/5 4/7/5 8/10/5
f 5/8/4 6/9/4 8/10/4
f 1/6/2 2/5/2 9/2/2
f 6/9/6 1/6/6 9/2/6
f 4/7/5 6/9/5 11/11/5
f 9/2/2 2/5/2 12/12/2
f 2/5/7 11/11/7 12/12/7
f 3/4/2 5/8/2 13/13/2
f 6/9/6 9/2/6 14/14/6
f 11/11/5 6/9/5 14/14/5
f 5/8/4 8/10/4 15/15/4
f 10/16/8 5/8/8 15/15/8
f 8/10/9 10/16/9 15/15/9
f 2/5/10 4/7/10 16/17/10
f 11/11/7 2/5/7 16/17/7
f 4/7/5 11/11/5 16/17/5
f 8/10/5 4/7/5 17/18/5
f 10/16/9 8/10/9 17/18/9
f 13/13/11 10/16/11 17/18/11
f 12/12/12 11/11/12 18/19/12
f 5/8/8 10/16/8 19/20/8
f 13/13/2 5/8/2 19/20/2
f 4/7/13 3/4/13 20/21/13
f 3/4/2 13/13/2 20/21/2
f 13/13/14 17/18/14 20/21/14
f 20/21/14 17/18/14 21/22/14
f 17/18/15 4/7/15 21/22/15
f 4/7/13 20/21/13 21/22/13
f 10/16/16 13/13/16 22/23/16
f 19/20/8 10/16/8 22/23/8
f 13/13/17 19/20/17 22/23/17
f 14/14/6 9/2/6 23/1/6
f 7/24/18 14/14/18 23/1/18
f 14/14/19 7/24/19 24/25/19
f 11/11/5 14/14/5 24/25/5
f 7/24/20 18/19/20 24/25/20
f 18/19/21 11/11/21 24/25/21
f 9/2/2 12/12/2 25/3/2
f 18/19/22 7/24/22 25/3/22
f 12/12/23 18/19/23 25/3/23
f 7/24/24 23/1/24 25/3/24
